HIERARCHY
ROOT joint_Root
{
	OFFSET 0.0 0.0 0.0
	CHANNELS 6 Xposition Yposition Zposition Zrotation Xrotation Yrotation 
	JOINT Hips
	{
		OFFSET -0.726466 93.3139 -2.00062
		CHANNELS 6 Xposition Yposition Zposition Zrotation Xrotation Yrotation 
		JOINT Spine
		{
			OFFSET 15.7357 0.0 0.0
			CHANNELS 6 Xposition Yposition Zposition Zrotation Xrotation Yrotation 
			JOINT Chest
			{
				OFFSET 8.98455 -0.406207 0.0
				CHANNELS 6 Xposition Yposition Zposition Zrotation Xrotation Yrotation 
				JOINT Neck
				{
					OFFSET 16.3773 0.0 0.0
					CHANNELS 6 Xposition Yposition Zposition Zrotation Xrotation Yrotation 
					JOINT Head
					{
						OFFSET 6.45672 0.0 0.0
						CHANNELS 6 Xposition Yposition Zposition Zrotation Xrotation Yrotation 
						End Site
						{
							OFFSET 0.0 0.0 0.0
						}
					}
				}
				JOINT Shoulder_L
				{
					OFFSET 12.9942 -0.242716 4.98039
					CHANNELS 6 Xposition Yposition Zposition Zrotation Xrotation Yrotation 
					JOINT UpperArm_L
					{
						OFFSET 5.34809 0.0 0.0
						CHANNELS 6 Xposition Yposition Zposition Zrotation Xrotation Yrotation 
						JOINT LowerArm_L
						{
							OFFSET 24.3286 1.87007e-05 0.0
							CHANNELS 6 Xposition Yposition Zposition Zrotation Xrotation Yrotation 
							JOINT Hand_L
							{
								OFFSET 22.2916 0.0 0.0
								CHANNELS 6 Xposition Yposition Zposition Zrotation Xrotation Yrotation 
								End Site
								{
									OFFSET 0.0 0.0 0.0
								}
							}
						}
					}
				}
				JOINT Shoulder_R
				{
					OFFSET 12.9945 -0.242716 -4.98039
					CHANNELS 6 Xposition Yposition Zposition Zrotation Xrotation Yrotation 
					JOINT UpperArm_R
					{
						OFFSET -5.34813 0.0 0.0
						CHANNELS 6 Xposition Yposition Zposition Zrotation Xrotation Yrotation 
						JOINT LowerArm_R
						{
							OFFSET -24.3289 0.000322201 0.0
							CHANNELS 6 Xposition Yposition Zposition Zrotation Xrotation Yrotation 
							JOINT Hand_R
							{
								OFFSET -22.2915 -0.000108084 0.0
								CHANNELS 6 Xposition Yposition Zposition Zrotation Xrotation Yrotation 
								End Site
								{
									OFFSET 0.0 0.0 0.0
								}
							}
						}
					}
				}
			}
		}
		JOINT UpperLeg_L
		{
			OFFSET -2.19248 -6.46944 0.0
			CHANNELS 6 Xposition Yposition Zposition Zrotation Xrotation Yrotation 
			JOINT LowerLeg_L
			{
				OFFSET 39.0811 0.0 -1.23785e-05
				CHANNELS 6 Xposition Yposition Zposition Zrotation Xrotation Yrotation 
				JOINT Foot_L
				{
					OFFSET 40.9854 0.0 -1.26872e-05
					CHANNELS 6 Xposition Yposition Zposition Zrotation Xrotation Yrotation 
					JOINT Toes_L
					{
						OFFSET 11.7543 0.0 0.0
						CHANNELS 6 Xposition Yposition Zposition Zrotation Xrotation Yrotation 
						End Site
						{
							OFFSET 0.0 0.0 0.0
						}
					}
				}
			}
		}
		JOINT UpperLeg_R
		{
			OFFSET -2.19251 6.46944 0.0
			CHANNELS 6 Xposition Yposition Zposition Zrotation Xrotation Yrotation 
			JOINT LowerLeg_R
			{
				OFFSET -39.0811 -0.00228153 -0.0401928
				CHANNELS 6 Xposition Yposition Zposition Zrotation Xrotation Yrotation 
				JOINT Foot_R
				{
					OFFSET -40.9854 0.0 0.0
					CHANNELS 6 Xposition Yposition Zposition Zrotation Xrotation Yrotation 
					JOINT Toes_R
					{
						OFFSET -11.7543 0.0 0.0
						CHANNELS 6 Xposition Yposition Zposition Zrotation Xrotation Yrotation 
						End Site
						{
							OFFSET 0.0 0.0 0.0
						}
					}
				}
			}
		}
	}
}
MOTION
Frames:	4
Frame Time:	0.0333333
0.000000 0.000000 0.000000 0.000000 0.000000 -0.000000 -178.062000 89.130700 189.876000 -15.348200 86.606500 107.368000 15.735700 0.000005 -0.000001 70.985200 82.698500 -69.366600 8.984550 -0.406207 -0.000000 6.126180 -4.768020 3.490370 16.377300 -0.000001 -0.000001 0.530912 -0.941685 -0.794976 6.456720 -0.000001 -0.000000 -0.716284 1.528220 0.026370 12.994200 -0.242716 4.980390 -89.314500 -2.218830 -72.825700 5.348090 -0.000007 -0.000001 -54.371200 30.552200 -44.330500 24.328600 0.000019 0.000005 -0.962080 -0.946060 -45.486400 22.291600 -0.000001 0.000005 14.883900 5.568220 -9.597500 12.994500 -0.242716 -4.980390 88.596800 4.193300 -71.479400 -5.348130 -0.000001 -0.000004 -71.369100 19.480600 -1.501970 -24.328900 0.000322 -0.000009 0.588427 14.172700 -2.406050 -22.291500 -0.000108 -0.000004 12.817000 5.271840 0.848388 -2.192480 -6.469440 -0.000000 -177.072000 -4.678890 5.925250 39.081100 -0.000007 -0.000012 -0.168209 0.360382 25.021100 40.985400 -0.000006 -0.000013 5.168600 6.123340 -79.677400 11.754300 -0.000000 0.000003 -0.000018 -0.000233 -16.586700 -2.192510 6.469440 -0.000001 -174.471000 18.663600 154.519000 -39.081100 -0.002282 -0.040193 0.000929 0.010060 13.441000 -40.985400 0.000008 0.000006 -7.245490 3.432930 -46.923000 -11.754300 -0.000006 -0.000006 -0.024090 -0.188974 -24.302500
0.000000 0.000000 0.000000 0.000000 0.000000 -0.000000 -174.554000 88.716300 190.829000 -18.463800 86.064200 110.317000 15.735700 0.000005 -0.000001 68.116600 82.748800 -66.229500 8.984550 -0.406207 -0.000000 5.804080 -5.424160 4.047310 16.377300 -0.000001 -0.000001 0.729870 -1.082080 -0.815238 6.456720 -0.000001 -0.000000 -0.368392 1.753180 -0.163313 12.994200 -0.242716 4.980390 -89.381200 -2.015010 -72.923700 5.348090 -0.000007 -0.000001 -55.034200 29.985800 -42.974500 24.328600 0.000019 0.000005 -1.441900 -1.437360 -45.100700 22.291600 -0.000001 0.000005 15.469200 5.571150 -9.747110 12.994500 -0.242716 -4.980390 88.421500 4.580060 -70.960800 -5.348130 -0.000001 -0.000004 -70.308700 20.489200 -0.922242 -24.328900 0.000322 -0.000009 0.758627 14.005400 -3.136010 -22.291500 -0.000108 -0.000004 12.687400 5.279700 0.634473 -2.192480 -6.469440 -0.000000 -175.629000 -5.259130 9.201010 39.081100 -0.000007 -0.000012 -0.010578 0.024735 23.153300 40.985400 -0.000006 -0.000013 7.154920 6.665550 -80.256200 11.754300 -0.000000 0.000003 -0.424545 -0.524653 -17.672000 -2.192510 6.469440 -0.000001 -171.951000 19.557100 152.608000 -39.081100 -0.002282 -0.040193 -0.006192 0.031622 16.754000 -40.985400 0.000008 0.000006 -2.065960 2.406210 -47.835100 -11.754300 -0.000006 -0.000006 -0.023521 -0.186063 -24.182200
0.000000 0.000000 0.000000 0.000000 0.000000 -0.000000 -170.584000 88.427600 191.881000 -19.751500 85.244700 111.285000 15.735700 0.000005 -0.000001 64.958500 82.993600 -62.695600 8.984550 -0.406207 -0.000000 5.073660 -5.972410 4.788650 16.377300 -0.000001 -0.000001 1.160130 -1.323570 -0.903040 6.456720 -0.000001 -0.000000 0.173183 1.964820 -0.348004 12.994200 -0.242716 4.980390 -89.484000 -1.683590 -72.955800 5.348090 -0.000007 -0.000001 -56.092800 30.365100 -40.304600 24.328600 0.000019 0.000005 -1.443430 -1.494570 -44.012500 22.291600 -0.000001 0.000005 15.497300 5.572210 -9.801950 12.994500 -0.242716 -4.980390 88.192800 5.015800 -70.157300 -5.348130 -0.000001 -0.000004 -69.432200 20.869300 -0.683870 -24.328900 0.000322 -0.000009 0.849004 13.955400 -3.520460 -22.291500 -0.000108 -0.000004 12.730900 5.284370 0.506234 -2.192480 -6.469440 -0.000000 -173.626000 -5.099370 9.687190 39.081100 -0.000007 -0.000012 -0.004947 0.010316 25.619400 40.985400 -0.000006 -0.000013 6.395030 8.255920 -76.670200 11.754300 -0.000000 0.000003 -1.027200 -1.218710 -24.651600 -2.192510 6.469440 -0.000001 -170.952000 16.916600 151.502000 -39.081100 -0.002282 -0.040193 0.008761 -0.013172 22.457100 -40.985400 0.000008 0.000006 5.126260 2.080940 -47.529200 -11.754300 -0.000006 -0.000006 -0.025495 -0.196020 -24.593800
0.000000 0.000000 0.000000 0.000000 0.000000 -0.000000 -166.176000 88.389500 192.982000 -18.684100 84.026700 110.447000 15.735700 0.000005 -0.000001 62.476800 83.107400 -59.663000 8.984550 -0.406207 -0.000000 4.647300 -6.435590 5.887540 16.377300 -0.000001 -0.000001 1.525220 -1.424720 -0.944465 6.456720 -0.000001 -0.000000 0.689740 2.250610 -0.884199 12.994200 -0.242716 4.980390 -89.672100 -1.067240 -72.920900 5.348090 -0.000007 -0.000001 -57.417400 31.476100 -36.505500 24.328600 0.000019 0.000005 -1.247020 -1.378810 -42.129100 22.291600 -0.000001 0.000005 15.012300 5.568220 -9.595350 12.994500 -0.242716 -4.980390 87.979300 5.417520 -69.508900 -5.348130 -0.000001 -0.000004 -68.872900 20.267700 -0.816328 -24.328900 0.000322 -0.000009 0.929270 14.017000 -3.835520 -22.291500 -0.000108 -0.000004 12.966100 5.277990 0.681166 -2.192480 -6.469440 -0.000000 -171.239000 -4.341160 10.293500 39.081100 -0.000007 -0.000012 -0.003359 0.006010 29.205000 40.985400 -0.000006 -0.000013 5.105160 9.442280 -72.678700 11.754300 -0.000000 0.000003 -0.049594 -0.296323 -28.780500 -2.192510 6.469440 -0.000001 -171.074000 11.583400 152.051000 -39.081100 -0.002282 -0.040193 0.023181 -0.037838 27.711100 -40.985400 0.000008 0.000006 6.589890 -2.593140 -49.016700 -11.754300 -0.000006 -0.000006 -0.018629 -0.159573 -23.090200
